<svg width="48" height="48" viewBox="0 0 48 48" fill="none" xmlns="http://www.w3.org/2000/svg">
  <rect width="48" height="48" rx="8" fill="#1DA1F2"/>
  <path d="M12 16C12 14.8954 12.8954 14 14 14H34C35.1046 14 36 14.8954 36 16V32C36 33.1046 35.1046 34 34 34H14C12.8954 34 12 33.1046 12 32V16Z" fill="white"/>
  <path d="M16 20H32V22H16V20Z" fill="#1DA1F2"/>
  <path d="M16 24H28V26H16V24Z" fill="#1DA1F2"/>
  <path d="M16 28H24V30H16V28Z" fill="#1DA1F2"/>
  <circle cx="20" cy="18" r="2" fill="#1DA1F2"/>
  <path d="M8 8L40 40M40 8L8 40" stroke="#FF6B6B" stroke-width="2" stroke-linecap="round"/>
</svg>
